<mxfile host="Electron" modified="2023-09-25T11:55:54.637Z" agent="Mozilla/5.0 (Windows NT 10.0; Win64; x64) AppleWebKit/537.36 (KHTML, like Gecko) draw.io/21.6.8 Chrome/114.0.5735.289 Electron/25.5.0 Safari/537.36" etag="f7TP5KfeP9kBDiWtKfxA" version="21.6.8" type="device" pages="6">
  <diagram name="Общий вид" id="lazlIpi1OaGIUPXyTEgX">
    <mxGraphModel dx="1105" dy="704" grid="0" gridSize="10" guides="1" tooltips="1" connect="1" arrows="1" fold="1" page="1" pageScale="1" pageWidth="827" pageHeight="1169" background="#FFFFFF" math="0" shadow="0">
      <root>
        <mxCell id="0" />
        <mxCell id="1" parent="0" />
        <mxCell id="etkGdbmypVyHN7uCpa18-37" style="edgeStyle=orthogonalEdgeStyle;rounded=0;orthogonalLoop=1;jettySize=auto;html=1;exitX=0.5;exitY=1;exitDx=0;exitDy=0;exitPerimeter=0;entryX=0.5;entryY=0;entryDx=0;entryDy=0;endArrow=none;endFill=0;" edge="1" parent="1" source="etkGdbmypVyHN7uCpa18-1" target="etkGdbmypVyHN7uCpa18-3">
          <mxGeometry relative="1" as="geometry" />
        </mxCell>
        <mxCell id="etkGdbmypVyHN7uCpa18-1" value="начало" style="strokeWidth=2;html=1;shape=mxgraph.flowchart.terminator;whiteSpace=wrap;fontSize=10;" vertex="1" parent="1">
          <mxGeometry x="230" y="24" width="100" height="50" as="geometry" />
        </mxCell>
        <mxCell id="etkGdbmypVyHN7uCpa18-2" value="конец" style="strokeWidth=2;html=1;shape=mxgraph.flowchart.terminator;whiteSpace=wrap;fontSize=10;" vertex="1" parent="1">
          <mxGeometry x="230" y="1078" width="100" height="50" as="geometry" />
        </mxCell>
        <mxCell id="etkGdbmypVyHN7uCpa18-38" style="edgeStyle=orthogonalEdgeStyle;rounded=0;orthogonalLoop=1;jettySize=auto;html=1;exitX=0.5;exitY=1;exitDx=0;exitDy=0;entryX=0.5;entryY=0;entryDx=0;entryDy=0;entryPerimeter=0;endArrow=none;endFill=0;" edge="1" parent="1" source="etkGdbmypVyHN7uCpa18-3" target="etkGdbmypVyHN7uCpa18-6">
          <mxGeometry relative="1" as="geometry" />
        </mxCell>
        <mxCell id="etkGdbmypVyHN7uCpa18-3" value="ввод числа n" style="shape=parallelogram;html=1;strokeWidth=2;perimeter=parallelogramPerimeter;whiteSpace=wrap;rounded=0;arcSize=12;size=0.23;fontSize=10;" vertex="1" parent="1">
          <mxGeometry x="230" y="102" width="100" height="50" as="geometry" />
        </mxCell>
        <mxCell id="etkGdbmypVyHN7uCpa18-39" style="edgeStyle=orthogonalEdgeStyle;rounded=0;orthogonalLoop=1;jettySize=auto;html=1;exitX=1;exitY=0.5;exitDx=0;exitDy=0;exitPerimeter=0;entryX=0.5;entryY=0;entryDx=0;entryDy=0;endArrow=none;endFill=0;" edge="1" parent="1" source="etkGdbmypVyHN7uCpa18-6" target="etkGdbmypVyHN7uCpa18-10">
          <mxGeometry relative="1" as="geometry" />
        </mxCell>
        <mxCell id="etkGdbmypVyHN7uCpa18-45" style="edgeStyle=orthogonalEdgeStyle;rounded=0;orthogonalLoop=1;jettySize=auto;html=1;entryX=0.5;entryY=0;entryDx=0;entryDy=0;endArrow=none;endFill=0;" edge="1" parent="1" source="etkGdbmypVyHN7uCpa18-6" target="etkGdbmypVyHN7uCpa18-36">
          <mxGeometry relative="1" as="geometry" />
        </mxCell>
        <mxCell id="etkGdbmypVyHN7uCpa18-6" value="top &amp;lt;= bottom&lt;br&gt;&amp;amp;&amp;amp;&lt;br&gt;left &amp;lt;= right?" style="strokeWidth=2;html=1;shape=mxgraph.flowchart.decision;whiteSpace=wrap;fontSize=10;" vertex="1" parent="1">
          <mxGeometry x="205" y="180" width="150" height="100" as="geometry" />
        </mxCell>
        <mxCell id="etkGdbmypVyHN7uCpa18-8" value="" style="group" vertex="1" connectable="0" parent="1">
          <mxGeometry x="415" y="296" width="150" height="100" as="geometry" />
        </mxCell>
        <mxCell id="etkGdbmypVyHN7uCpa18-9" value="проход из текущего левого верхнего угла к текущему правому верхнему с заполнением значений" style="rounded=0;whiteSpace=wrap;html=1;absoluteArcSize=1;arcSize=14;strokeWidth=2;" vertex="1" parent="etkGdbmypVyHN7uCpa18-8">
          <mxGeometry y="23.076923076923077" width="150" height="100" as="geometry" />
        </mxCell>
        <mxCell id="etkGdbmypVyHN7uCpa18-10" value="A1" style="rounded=0;whiteSpace=wrap;html=1;absoluteArcSize=1;arcSize=14;strokeWidth=2;" vertex="1" parent="etkGdbmypVyHN7uCpa18-8">
          <mxGeometry width="150" height="23.076923076923077" as="geometry" />
        </mxCell>
        <mxCell id="etkGdbmypVyHN7uCpa18-24" value="" style="group" vertex="1" connectable="0" parent="1">
          <mxGeometry x="415" y="453" width="150" height="100" as="geometry" />
        </mxCell>
        <mxCell id="etkGdbmypVyHN7uCpa18-25" value="проход из текущего правого верхнего угла к текущему правому нижнему с заполнением значений" style="rounded=0;whiteSpace=wrap;html=1;absoluteArcSize=1;arcSize=14;strokeWidth=2;" vertex="1" parent="etkGdbmypVyHN7uCpa18-24">
          <mxGeometry y="23.076923076923077" width="150" height="100" as="geometry" />
        </mxCell>
        <mxCell id="etkGdbmypVyHN7uCpa18-26" value="A2" style="rounded=0;whiteSpace=wrap;html=1;absoluteArcSize=1;arcSize=14;strokeWidth=2;" vertex="1" parent="etkGdbmypVyHN7uCpa18-24">
          <mxGeometry width="150" height="23.076923076923077" as="geometry" />
        </mxCell>
        <mxCell id="etkGdbmypVyHN7uCpa18-27" value="" style="group" vertex="1" connectable="0" parent="1">
          <mxGeometry x="415" y="610" width="150" height="100" as="geometry" />
        </mxCell>
        <mxCell id="etkGdbmypVyHN7uCpa18-28" value="проход из текущего правого нижнего угла к текущему левому нижнему с заполнением значений" style="rounded=0;whiteSpace=wrap;html=1;absoluteArcSize=1;arcSize=14;strokeWidth=2;" vertex="1" parent="etkGdbmypVyHN7uCpa18-27">
          <mxGeometry y="23.076923076923077" width="150" height="100" as="geometry" />
        </mxCell>
        <mxCell id="etkGdbmypVyHN7uCpa18-29" value="A3" style="rounded=0;whiteSpace=wrap;html=1;absoluteArcSize=1;arcSize=14;strokeWidth=2;" vertex="1" parent="etkGdbmypVyHN7uCpa18-27">
          <mxGeometry width="150" height="23.076923076923077" as="geometry" />
        </mxCell>
        <mxCell id="etkGdbmypVyHN7uCpa18-30" value="" style="group" vertex="1" connectable="0" parent="1">
          <mxGeometry x="415" y="763" width="150" height="100" as="geometry" />
        </mxCell>
        <mxCell id="etkGdbmypVyHN7uCpa18-31" value="проход из текущего левого нижнего угла к текущему левому верхнему с заполнением значений" style="rounded=0;whiteSpace=wrap;html=1;absoluteArcSize=1;arcSize=14;strokeWidth=2;" vertex="1" parent="etkGdbmypVyHN7uCpa18-30">
          <mxGeometry y="23.076923076923077" width="150" height="100" as="geometry" />
        </mxCell>
        <mxCell id="etkGdbmypVyHN7uCpa18-32" value="A4" style="rounded=0;whiteSpace=wrap;html=1;absoluteArcSize=1;arcSize=14;strokeWidth=2;" vertex="1" parent="etkGdbmypVyHN7uCpa18-30">
          <mxGeometry width="150" height="23.076923076923077" as="geometry" />
        </mxCell>
        <mxCell id="etkGdbmypVyHN7uCpa18-34" value="" style="group" vertex="1" connectable="0" parent="1">
          <mxGeometry x="205" y="927" width="150" height="100" as="geometry" />
        </mxCell>
        <mxCell id="etkGdbmypVyHN7uCpa18-35" value="вывод массива" style="rounded=0;whiteSpace=wrap;html=1;absoluteArcSize=1;arcSize=14;strokeWidth=2;" vertex="1" parent="etkGdbmypVyHN7uCpa18-34">
          <mxGeometry y="23.076923076923077" width="150" height="100" as="geometry" />
        </mxCell>
        <mxCell id="etkGdbmypVyHN7uCpa18-36" value="А5" style="rounded=0;whiteSpace=wrap;html=1;absoluteArcSize=1;arcSize=14;strokeWidth=2;" vertex="1" parent="etkGdbmypVyHN7uCpa18-34">
          <mxGeometry width="150" height="23.076923076923077" as="geometry" />
        </mxCell>
        <mxCell id="etkGdbmypVyHN7uCpa18-40" style="edgeStyle=orthogonalEdgeStyle;rounded=0;orthogonalLoop=1;jettySize=auto;html=1;exitX=0.5;exitY=1;exitDx=0;exitDy=0;entryX=0.5;entryY=0;entryDx=0;entryDy=0;endArrow=none;endFill=0;" edge="1" parent="1" source="etkGdbmypVyHN7uCpa18-9" target="etkGdbmypVyHN7uCpa18-26">
          <mxGeometry relative="1" as="geometry" />
        </mxCell>
        <mxCell id="etkGdbmypVyHN7uCpa18-41" style="edgeStyle=orthogonalEdgeStyle;rounded=0;orthogonalLoop=1;jettySize=auto;html=1;exitX=0.5;exitY=1;exitDx=0;exitDy=0;entryX=0.5;entryY=0;entryDx=0;entryDy=0;endArrow=none;endFill=0;" edge="1" parent="1" source="etkGdbmypVyHN7uCpa18-25" target="etkGdbmypVyHN7uCpa18-29">
          <mxGeometry relative="1" as="geometry" />
        </mxCell>
        <mxCell id="etkGdbmypVyHN7uCpa18-42" style="edgeStyle=orthogonalEdgeStyle;rounded=0;orthogonalLoop=1;jettySize=auto;html=1;exitX=0.5;exitY=1;exitDx=0;exitDy=0;entryX=0.5;entryY=0;entryDx=0;entryDy=0;endArrow=none;endFill=0;" edge="1" parent="1" source="etkGdbmypVyHN7uCpa18-28" target="etkGdbmypVyHN7uCpa18-32">
          <mxGeometry relative="1" as="geometry" />
        </mxCell>
        <mxCell id="etkGdbmypVyHN7uCpa18-43" style="edgeStyle=orthogonalEdgeStyle;rounded=0;orthogonalLoop=1;jettySize=auto;html=1;exitX=0.5;exitY=1;exitDx=0;exitDy=0;" edge="1" parent="1" source="etkGdbmypVyHN7uCpa18-31">
          <mxGeometry relative="1" as="geometry">
            <mxPoint x="280" y="166" as="targetPoint" />
            <Array as="points">
              <mxPoint x="490" y="906" />
              <mxPoint x="726" y="906" />
              <mxPoint x="726" y="166" />
            </Array>
          </mxGeometry>
        </mxCell>
        <mxCell id="etkGdbmypVyHN7uCpa18-46" value="" style="edgeStyle=orthogonalEdgeStyle;rounded=0;orthogonalLoop=1;jettySize=auto;html=1;endArrow=none;endFill=0;" edge="1" parent="1" source="etkGdbmypVyHN7uCpa18-35" target="etkGdbmypVyHN7uCpa18-2">
          <mxGeometry relative="1" as="geometry" />
        </mxCell>
        <mxCell id="etkGdbmypVyHN7uCpa18-47" value="да" style="text;html=1;strokeColor=none;fillColor=none;align=center;verticalAlign=middle;whiteSpace=wrap;rounded=0;" vertex="1" parent="1">
          <mxGeometry x="384" y="207" width="60" height="30" as="geometry" />
        </mxCell>
      </root>
    </mxGraphModel>
  </diagram>
  <diagram id="gWcMavrOMSJxFPMOTSQB" name="А1">
    <mxGraphModel dx="875" dy="558" grid="0" gridSize="10" guides="1" tooltips="1" connect="1" arrows="0" fold="1" page="1" pageScale="1" pageWidth="827" pageHeight="1169" background="#FFFFFF" math="0" shadow="0">
      <root>
        <mxCell id="0" />
        <mxCell id="1" parent="0" />
        <mxCell id="yp7aGtjBHAINsV9wHtE0-3" style="edgeStyle=orthogonalEdgeStyle;rounded=0;orthogonalLoop=1;jettySize=auto;html=1;exitX=0.5;exitY=1;exitDx=0;exitDy=0;exitPerimeter=0;entryX=0.5;entryY=0;entryDx=0;entryDy=0;endArrow=none;endFill=0;" edge="1" parent="1" source="oLWw35GzPiVhhe6XnnqW-1" target="oLWw35GzPiVhhe6XnnqW-3">
          <mxGeometry relative="1" as="geometry" />
        </mxCell>
        <mxCell id="oLWw35GzPiVhhe6XnnqW-1" value="начало А1" style="strokeWidth=2;html=1;shape=mxgraph.flowchart.terminator;whiteSpace=wrap;fontSize=10;" vertex="1" parent="1">
          <mxGeometry x="347" y="40" width="100" height="50" as="geometry" />
        </mxCell>
        <mxCell id="oLWw35GzPiVhhe6XnnqW-2" value="конец А1" style="strokeWidth=2;html=1;shape=mxgraph.flowchart.terminator;whiteSpace=wrap;fontSize=10;" vertex="1" parent="1">
          <mxGeometry x="347" y="625" width="100" height="50" as="geometry" />
        </mxCell>
        <mxCell id="yp7aGtjBHAINsV9wHtE0-4" style="edgeStyle=orthogonalEdgeStyle;rounded=0;orthogonalLoop=1;jettySize=auto;html=1;exitX=0.5;exitY=1;exitDx=0;exitDy=0;entryX=0.5;entryY=0;entryDx=0;entryDy=0;entryPerimeter=0;endArrow=none;endFill=0;" edge="1" parent="1" source="oLWw35GzPiVhhe6XnnqW-3" target="oLWw35GzPiVhhe6XnnqW-4">
          <mxGeometry relative="1" as="geometry" />
        </mxCell>
        <mxCell id="oLWw35GzPiVhhe6XnnqW-3" value="col = left;" style="rounded=0;whiteSpace=wrap;html=1;absoluteArcSize=1;arcSize=14;strokeWidth=2;" vertex="1" parent="1">
          <mxGeometry x="359.5" y="125" width="75" height="50" as="geometry" />
        </mxCell>
        <mxCell id="yp7aGtjBHAINsV9wHtE0-5" style="edgeStyle=orthogonalEdgeStyle;rounded=0;orthogonalLoop=1;jettySize=auto;html=1;exitX=1;exitY=0.5;exitDx=0;exitDy=0;exitPerimeter=0;entryX=0.5;entryY=0;entryDx=0;entryDy=0;endArrow=none;endFill=0;" edge="1" parent="1" source="oLWw35GzPiVhhe6XnnqW-4" target="yp7aGtjBHAINsV9wHtE0-1">
          <mxGeometry relative="1" as="geometry" />
        </mxCell>
        <mxCell id="1syxNQWjWOIJhfBJzIWz-3" style="edgeStyle=orthogonalEdgeStyle;rounded=0;orthogonalLoop=1;jettySize=auto;html=1;exitX=0.5;exitY=1;exitDx=0;exitDy=0;exitPerimeter=0;entryX=0.5;entryY=0;entryDx=0;entryDy=0;endArrow=none;endFill=0;" edge="1" parent="1" source="oLWw35GzPiVhhe6XnnqW-4" target="1syxNQWjWOIJhfBJzIWz-1">
          <mxGeometry relative="1" as="geometry" />
        </mxCell>
        <mxCell id="oLWw35GzPiVhhe6XnnqW-4" value="col &amp;lt;= right?" style="strokeWidth=2;html=1;shape=mxgraph.flowchart.decision;whiteSpace=wrap;fontSize=10;" vertex="1" parent="1">
          <mxGeometry x="347" y="214" width="100" height="50" as="geometry" />
        </mxCell>
        <mxCell id="yp7aGtjBHAINsV9wHtE0-6" style="edgeStyle=orthogonalEdgeStyle;rounded=0;orthogonalLoop=1;jettySize=auto;html=1;exitX=0.5;exitY=1;exitDx=0;exitDy=0;entryX=0.5;entryY=0;entryDx=0;entryDy=0;endArrow=none;endFill=0;" edge="1" parent="1" source="yp7aGtjBHAINsV9wHtE0-1" target="yp7aGtjBHAINsV9wHtE0-2">
          <mxGeometry relative="1" as="geometry" />
        </mxCell>
        <mxCell id="yp7aGtjBHAINsV9wHtE0-1" value="arr[top][col] = value++;" style="rounded=0;whiteSpace=wrap;html=1;absoluteArcSize=1;arcSize=14;strokeWidth=2;" vertex="1" parent="1">
          <mxGeometry x="486" y="297" width="75" height="50" as="geometry" />
        </mxCell>
        <mxCell id="yp7aGtjBHAINsV9wHtE0-7" style="edgeStyle=orthogonalEdgeStyle;rounded=0;orthogonalLoop=1;jettySize=auto;html=1;exitX=0.5;exitY=1;exitDx=0;exitDy=0;" edge="1" parent="1" source="yp7aGtjBHAINsV9wHtE0-2">
          <mxGeometry relative="1" as="geometry">
            <mxPoint x="523.5" y="487" as="sourcePoint" />
            <mxPoint x="397" y="193" as="targetPoint" />
            <Array as="points">
              <mxPoint x="524" y="463" />
              <mxPoint x="638" y="463" />
              <mxPoint x="638" y="193" />
              <mxPoint x="397" y="193" />
            </Array>
          </mxGeometry>
        </mxCell>
        <mxCell id="yp7aGtjBHAINsV9wHtE0-2" value="col++" style="rounded=0;whiteSpace=wrap;html=1;absoluteArcSize=1;arcSize=14;strokeWidth=2;" vertex="1" parent="1">
          <mxGeometry x="486" y="389" width="75" height="50" as="geometry" />
        </mxCell>
        <mxCell id="1syxNQWjWOIJhfBJzIWz-4" style="edgeStyle=orthogonalEdgeStyle;rounded=0;orthogonalLoop=1;jettySize=auto;html=1;exitX=0.5;exitY=1;exitDx=0;exitDy=0;entryX=0.5;entryY=0;entryDx=0;entryDy=0;entryPerimeter=0;endArrow=none;endFill=0;" edge="1" parent="1" source="1syxNQWjWOIJhfBJzIWz-1" target="oLWw35GzPiVhhe6XnnqW-2">
          <mxGeometry relative="1" as="geometry" />
        </mxCell>
        <mxCell id="1syxNQWjWOIJhfBJzIWz-1" value="top++;" style="rounded=0;whiteSpace=wrap;html=1;absoluteArcSize=1;arcSize=14;strokeWidth=2;" vertex="1" parent="1">
          <mxGeometry x="359.5" y="527" width="75" height="50" as="geometry" />
        </mxCell>
      </root>
    </mxGraphModel>
  </diagram>
  <diagram name="А2" id="SzSjSCQaBQObGQug56Lz">
    <mxGraphModel dx="1050" dy="669" grid="0" gridSize="10" guides="1" tooltips="1" connect="1" arrows="0" fold="1" page="1" pageScale="1" pageWidth="827" pageHeight="1169" background="#FFFFFF" math="0" shadow="0">
      <root>
        <mxCell id="PoZ4daUa2inAZtV_9n6g-0" />
        <mxCell id="PoZ4daUa2inAZtV_9n6g-1" parent="PoZ4daUa2inAZtV_9n6g-0" />
        <mxCell id="PoZ4daUa2inAZtV_9n6g-2" style="edgeStyle=orthogonalEdgeStyle;rounded=0;orthogonalLoop=1;jettySize=auto;html=1;exitX=0.5;exitY=1;exitDx=0;exitDy=0;exitPerimeter=0;entryX=0.5;entryY=0;entryDx=0;entryDy=0;endArrow=none;endFill=0;" edge="1" parent="PoZ4daUa2inAZtV_9n6g-1" source="PoZ4daUa2inAZtV_9n6g-3" target="PoZ4daUa2inAZtV_9n6g-6">
          <mxGeometry relative="1" as="geometry" />
        </mxCell>
        <mxCell id="PoZ4daUa2inAZtV_9n6g-3" value="начало А2" style="strokeWidth=2;html=1;shape=mxgraph.flowchart.terminator;whiteSpace=wrap;fontSize=10;" vertex="1" parent="PoZ4daUa2inAZtV_9n6g-1">
          <mxGeometry x="347" y="40" width="100" height="50" as="geometry" />
        </mxCell>
        <mxCell id="PoZ4daUa2inAZtV_9n6g-4" value="конец А2" style="strokeWidth=2;html=1;shape=mxgraph.flowchart.terminator;whiteSpace=wrap;fontSize=10;" vertex="1" parent="PoZ4daUa2inAZtV_9n6g-1">
          <mxGeometry x="347" y="605" width="100" height="50" as="geometry" />
        </mxCell>
        <mxCell id="PoZ4daUa2inAZtV_9n6g-5" style="edgeStyle=orthogonalEdgeStyle;rounded=0;orthogonalLoop=1;jettySize=auto;html=1;exitX=0.5;exitY=1;exitDx=0;exitDy=0;entryX=0.5;entryY=0;entryDx=0;entryDy=0;entryPerimeter=0;endArrow=none;endFill=0;" edge="1" parent="PoZ4daUa2inAZtV_9n6g-1" source="PoZ4daUa2inAZtV_9n6g-6" target="PoZ4daUa2inAZtV_9n6g-9">
          <mxGeometry relative="1" as="geometry" />
        </mxCell>
        <mxCell id="PoZ4daUa2inAZtV_9n6g-6" value="row = top;" style="rounded=0;whiteSpace=wrap;html=1;absoluteArcSize=1;arcSize=14;strokeWidth=2;" vertex="1" parent="PoZ4daUa2inAZtV_9n6g-1">
          <mxGeometry x="359.5" y="125" width="75" height="50" as="geometry" />
        </mxCell>
        <mxCell id="PoZ4daUa2inAZtV_9n6g-7" style="edgeStyle=orthogonalEdgeStyle;rounded=0;orthogonalLoop=1;jettySize=auto;html=1;exitX=1;exitY=0.5;exitDx=0;exitDy=0;exitPerimeter=0;entryX=0.5;entryY=0;entryDx=0;entryDy=0;endArrow=none;endFill=0;" edge="1" parent="PoZ4daUa2inAZtV_9n6g-1" source="PoZ4daUa2inAZtV_9n6g-9" target="PoZ4daUa2inAZtV_9n6g-11">
          <mxGeometry relative="1" as="geometry" />
        </mxCell>
        <mxCell id="IwFviznoY_G_SQWgWFbe-1" style="edgeStyle=orthogonalEdgeStyle;rounded=0;orthogonalLoop=1;jettySize=auto;html=1;exitX=0.5;exitY=1;exitDx=0;exitDy=0;exitPerimeter=0;entryX=0.5;entryY=0;entryDx=0;entryDy=0;endArrow=none;endFill=0;" edge="1" parent="PoZ4daUa2inAZtV_9n6g-1" source="PoZ4daUa2inAZtV_9n6g-9" target="IwFviznoY_G_SQWgWFbe-0">
          <mxGeometry relative="1" as="geometry" />
        </mxCell>
        <mxCell id="PoZ4daUa2inAZtV_9n6g-9" value="row &amp;lt;= bottom?" style="strokeWidth=2;html=1;shape=mxgraph.flowchart.decision;whiteSpace=wrap;fontSize=10;" vertex="1" parent="PoZ4daUa2inAZtV_9n6g-1">
          <mxGeometry x="347" y="214" width="100" height="50" as="geometry" />
        </mxCell>
        <mxCell id="PoZ4daUa2inAZtV_9n6g-10" style="edgeStyle=orthogonalEdgeStyle;rounded=0;orthogonalLoop=1;jettySize=auto;html=1;exitX=0.5;exitY=1;exitDx=0;exitDy=0;entryX=0.5;entryY=0;entryDx=0;entryDy=0;endArrow=none;endFill=0;" edge="1" parent="PoZ4daUa2inAZtV_9n6g-1" source="PoZ4daUa2inAZtV_9n6g-11" target="PoZ4daUa2inAZtV_9n6g-13">
          <mxGeometry relative="1" as="geometry" />
        </mxCell>
        <mxCell id="PoZ4daUa2inAZtV_9n6g-11" value="arr[row][right] = value++;" style="rounded=0;whiteSpace=wrap;html=1;absoluteArcSize=1;arcSize=14;strokeWidth=2;" vertex="1" parent="PoZ4daUa2inAZtV_9n6g-1">
          <mxGeometry x="486" y="297" width="75" height="50" as="geometry" />
        </mxCell>
        <mxCell id="PoZ4daUa2inAZtV_9n6g-12" style="edgeStyle=orthogonalEdgeStyle;rounded=0;orthogonalLoop=1;jettySize=auto;html=1;exitX=0.5;exitY=1;exitDx=0;exitDy=0;" edge="1" parent="PoZ4daUa2inAZtV_9n6g-1" source="PoZ4daUa2inAZtV_9n6g-13">
          <mxGeometry relative="1" as="geometry">
            <mxPoint x="523.5" y="487" as="sourcePoint" />
            <mxPoint x="397" y="193" as="targetPoint" />
            <Array as="points">
              <mxPoint x="524" y="463" />
              <mxPoint x="638" y="463" />
              <mxPoint x="638" y="193" />
              <mxPoint x="397" y="193" />
            </Array>
          </mxGeometry>
        </mxCell>
        <mxCell id="PoZ4daUa2inAZtV_9n6g-13" value="row++;" style="rounded=0;whiteSpace=wrap;html=1;absoluteArcSize=1;arcSize=14;strokeWidth=2;" vertex="1" parent="PoZ4daUa2inAZtV_9n6g-1">
          <mxGeometry x="486" y="389" width="75" height="50" as="geometry" />
        </mxCell>
        <mxCell id="IwFviznoY_G_SQWgWFbe-2" style="edgeStyle=orthogonalEdgeStyle;rounded=0;orthogonalLoop=1;jettySize=auto;html=1;exitX=0.5;exitY=1;exitDx=0;exitDy=0;entryX=0.5;entryY=0;entryDx=0;entryDy=0;entryPerimeter=0;endArrow=none;endFill=0;" edge="1" parent="PoZ4daUa2inAZtV_9n6g-1" source="IwFviznoY_G_SQWgWFbe-0" target="PoZ4daUa2inAZtV_9n6g-4">
          <mxGeometry relative="1" as="geometry" />
        </mxCell>
        <mxCell id="IwFviznoY_G_SQWgWFbe-0" value="right--;" style="rounded=0;whiteSpace=wrap;html=1;absoluteArcSize=1;arcSize=14;strokeWidth=2;" vertex="1" parent="PoZ4daUa2inAZtV_9n6g-1">
          <mxGeometry x="359.5" y="507" width="75" height="50" as="geometry" />
        </mxCell>
      </root>
    </mxGraphModel>
  </diagram>
  <diagram name="А3" id="8DgCPL8D_zTFWMVN-VwQ">
    <mxGraphModel dx="1235" dy="787" grid="0" gridSize="10" guides="1" tooltips="1" connect="1" arrows="0" fold="1" page="1" pageScale="1" pageWidth="827" pageHeight="1169" background="#FFFFFF" math="0" shadow="0">
      <root>
        <mxCell id="vqAEnsUzI4asuwa8I4yw-0" />
        <mxCell id="vqAEnsUzI4asuwa8I4yw-1" parent="vqAEnsUzI4asuwa8I4yw-0" />
        <mxCell id="0brILYWEn0gdcqR5UsxN-2" style="edgeStyle=orthogonalEdgeStyle;rounded=0;orthogonalLoop=1;jettySize=auto;html=1;exitX=0.5;exitY=1;exitDx=0;exitDy=0;exitPerimeter=0;entryX=0.5;entryY=0;entryDx=0;entryDy=0;entryPerimeter=0;endArrow=none;endFill=0;" edge="1" parent="vqAEnsUzI4asuwa8I4yw-1" source="vqAEnsUzI4asuwa8I4yw-3" target="0brILYWEn0gdcqR5UsxN-0">
          <mxGeometry relative="1" as="geometry" />
        </mxCell>
        <mxCell id="vqAEnsUzI4asuwa8I4yw-3" value="начало А3" style="strokeWidth=2;html=1;shape=mxgraph.flowchart.terminator;whiteSpace=wrap;fontSize=10;" vertex="1" parent="vqAEnsUzI4asuwa8I4yw-1">
          <mxGeometry x="167" y="70" width="100" height="50" as="geometry" />
        </mxCell>
        <mxCell id="vqAEnsUzI4asuwa8I4yw-4" value="конец А3" style="strokeWidth=2;html=1;shape=mxgraph.flowchart.terminator;whiteSpace=wrap;fontSize=10;" vertex="1" parent="vqAEnsUzI4asuwa8I4yw-1">
          <mxGeometry x="167" y="705" width="100" height="50" as="geometry" />
        </mxCell>
        <mxCell id="vqAEnsUzI4asuwa8I4yw-5" style="edgeStyle=orthogonalEdgeStyle;rounded=0;orthogonalLoop=1;jettySize=auto;html=1;exitX=0.5;exitY=1;exitDx=0;exitDy=0;entryX=0.5;entryY=0;entryDx=0;entryDy=0;entryPerimeter=0;endArrow=none;endFill=0;" edge="1" parent="vqAEnsUzI4asuwa8I4yw-1" source="vqAEnsUzI4asuwa8I4yw-6" target="vqAEnsUzI4asuwa8I4yw-9">
          <mxGeometry relative="1" as="geometry" />
        </mxCell>
        <mxCell id="vqAEnsUzI4asuwa8I4yw-6" value="col = right;" style="rounded=0;whiteSpace=wrap;html=1;absoluteArcSize=1;arcSize=14;strokeWidth=2;" vertex="1" parent="vqAEnsUzI4asuwa8I4yw-1">
          <mxGeometry x="309.5" y="205" width="75" height="50" as="geometry" />
        </mxCell>
        <mxCell id="vqAEnsUzI4asuwa8I4yw-7" style="edgeStyle=orthogonalEdgeStyle;rounded=0;orthogonalLoop=1;jettySize=auto;html=1;exitX=1;exitY=0.5;exitDx=0;exitDy=0;exitPerimeter=0;entryX=0.5;entryY=0;entryDx=0;entryDy=0;endArrow=none;endFill=0;" edge="1" parent="vqAEnsUzI4asuwa8I4yw-1" source="vqAEnsUzI4asuwa8I4yw-9" target="vqAEnsUzI4asuwa8I4yw-11">
          <mxGeometry relative="1" as="geometry" />
        </mxCell>
        <mxCell id="nX73ICngytbCq0a44gFQ-3" style="edgeStyle=orthogonalEdgeStyle;rounded=0;orthogonalLoop=1;jettySize=auto;html=1;exitX=0.5;exitY=1;exitDx=0;exitDy=0;exitPerimeter=0;entryX=0.5;entryY=0;entryDx=0;entryDy=0;endArrow=none;endFill=0;" edge="1" parent="vqAEnsUzI4asuwa8I4yw-1" source="vqAEnsUzI4asuwa8I4yw-9" target="nX73ICngytbCq0a44gFQ-0">
          <mxGeometry relative="1" as="geometry">
            <Array as="points">
              <mxPoint x="347" y="600" />
              <mxPoint x="217" y="600" />
            </Array>
          </mxGeometry>
        </mxCell>
        <mxCell id="vqAEnsUzI4asuwa8I4yw-9" value="col &amp;gt;= left?" style="strokeWidth=2;html=1;shape=mxgraph.flowchart.decision;whiteSpace=wrap;fontSize=10;" vertex="1" parent="vqAEnsUzI4asuwa8I4yw-1">
          <mxGeometry x="297" y="304" width="100" height="50" as="geometry" />
        </mxCell>
        <mxCell id="vqAEnsUzI4asuwa8I4yw-10" style="edgeStyle=orthogonalEdgeStyle;rounded=0;orthogonalLoop=1;jettySize=auto;html=1;exitX=0.5;exitY=1;exitDx=0;exitDy=0;entryX=0.5;entryY=0;entryDx=0;entryDy=0;endArrow=none;endFill=0;" edge="1" parent="vqAEnsUzI4asuwa8I4yw-1" source="vqAEnsUzI4asuwa8I4yw-11" target="vqAEnsUzI4asuwa8I4yw-13">
          <mxGeometry relative="1" as="geometry" />
        </mxCell>
        <mxCell id="vqAEnsUzI4asuwa8I4yw-11" value="arr[bottom][col] = value++;" style="rounded=0;whiteSpace=wrap;html=1;absoluteArcSize=1;arcSize=14;strokeWidth=2;" vertex="1" parent="vqAEnsUzI4asuwa8I4yw-1">
          <mxGeometry x="436" y="387" width="75" height="50" as="geometry" />
        </mxCell>
        <mxCell id="vqAEnsUzI4asuwa8I4yw-12" style="edgeStyle=orthogonalEdgeStyle;rounded=0;orthogonalLoop=1;jettySize=auto;html=1;exitX=0.5;exitY=1;exitDx=0;exitDy=0;" edge="1" parent="vqAEnsUzI4asuwa8I4yw-1" source="vqAEnsUzI4asuwa8I4yw-13">
          <mxGeometry relative="1" as="geometry">
            <mxPoint x="473.5" y="577" as="sourcePoint" />
            <mxPoint x="347" y="283" as="targetPoint" />
            <Array as="points">
              <mxPoint x="474" y="553" />
              <mxPoint x="588" y="553" />
              <mxPoint x="588" y="283" />
              <mxPoint x="347" y="283" />
            </Array>
          </mxGeometry>
        </mxCell>
        <mxCell id="vqAEnsUzI4asuwa8I4yw-13" value="col--;" style="rounded=0;whiteSpace=wrap;html=1;absoluteArcSize=1;arcSize=14;strokeWidth=2;" vertex="1" parent="vqAEnsUzI4asuwa8I4yw-1">
          <mxGeometry x="436" y="479" width="75" height="50" as="geometry" />
        </mxCell>
        <mxCell id="0brILYWEn0gdcqR5UsxN-1" style="edgeStyle=orthogonalEdgeStyle;rounded=0;orthogonalLoop=1;jettySize=auto;html=1;exitX=1;exitY=0.5;exitDx=0;exitDy=0;exitPerimeter=0;entryX=0.5;entryY=0;entryDx=0;entryDy=0;endArrow=none;endFill=0;" edge="1" parent="vqAEnsUzI4asuwa8I4yw-1" source="0brILYWEn0gdcqR5UsxN-0" target="vqAEnsUzI4asuwa8I4yw-6">
          <mxGeometry relative="1" as="geometry" />
        </mxCell>
        <mxCell id="nX73ICngytbCq0a44gFQ-1" style="edgeStyle=orthogonalEdgeStyle;rounded=0;orthogonalLoop=1;jettySize=auto;html=1;exitX=0.5;exitY=1;exitDx=0;exitDy=0;exitPerimeter=0;entryX=0.5;entryY=0;entryDx=0;entryDy=0;endArrow=none;endFill=0;" edge="1" parent="vqAEnsUzI4asuwa8I4yw-1" source="0brILYWEn0gdcqR5UsxN-0" target="nX73ICngytbCq0a44gFQ-0">
          <mxGeometry relative="1" as="geometry" />
        </mxCell>
        <mxCell id="0brILYWEn0gdcqR5UsxN-0" value="top &amp;lt;= bottom?" style="strokeWidth=2;html=1;shape=mxgraph.flowchart.decision;whiteSpace=wrap;fontSize=10;" vertex="1" parent="vqAEnsUzI4asuwa8I4yw-1">
          <mxGeometry x="167" y="144" width="100" height="50" as="geometry" />
        </mxCell>
        <mxCell id="nX73ICngytbCq0a44gFQ-2" style="edgeStyle=orthogonalEdgeStyle;rounded=0;orthogonalLoop=1;jettySize=auto;html=1;exitX=0.5;exitY=1;exitDx=0;exitDy=0;entryX=0.5;entryY=0;entryDx=0;entryDy=0;entryPerimeter=0;endArrow=none;endFill=0;" edge="1" parent="vqAEnsUzI4asuwa8I4yw-1" source="nX73ICngytbCq0a44gFQ-0" target="vqAEnsUzI4asuwa8I4yw-4">
          <mxGeometry relative="1" as="geometry" />
        </mxCell>
        <mxCell id="nX73ICngytbCq0a44gFQ-0" value="bottom--;" style="rounded=0;whiteSpace=wrap;html=1;absoluteArcSize=1;arcSize=14;strokeWidth=2;" vertex="1" parent="vqAEnsUzI4asuwa8I4yw-1">
          <mxGeometry x="180" y="630" width="75" height="50" as="geometry" />
        </mxCell>
        <mxCell id="nX73ICngytbCq0a44gFQ-4" value="да" style="text;html=1;strokeColor=none;fillColor=none;align=center;verticalAlign=middle;whiteSpace=wrap;rounded=0;" vertex="1" parent="vqAEnsUzI4asuwa8I4yw-1">
          <mxGeometry x="271" y="144" width="60" height="30" as="geometry" />
        </mxCell>
        <mxCell id="nX73ICngytbCq0a44gFQ-5" value="да" style="text;html=1;strokeColor=none;fillColor=none;align=center;verticalAlign=middle;whiteSpace=wrap;rounded=0;" vertex="1" parent="vqAEnsUzI4asuwa8I4yw-1">
          <mxGeometry x="399" y="305" width="60" height="30" as="geometry" />
        </mxCell>
      </root>
    </mxGraphModel>
  </diagram>
  <diagram name="А4" id="5LDm_6mDqRy1fsA6MX9s">
    <mxGraphModel dx="1235" dy="787" grid="0" gridSize="10" guides="1" tooltips="1" connect="1" arrows="0" fold="1" page="1" pageScale="1" pageWidth="827" pageHeight="1169" background="#FFFFFF" math="0" shadow="0">
      <root>
        <mxCell id="aqwZJpFMOjea6-vcezyB-0" />
        <mxCell id="aqwZJpFMOjea6-vcezyB-1" parent="aqwZJpFMOjea6-vcezyB-0" />
        <mxCell id="aqwZJpFMOjea6-vcezyB-2" style="edgeStyle=orthogonalEdgeStyle;rounded=0;orthogonalLoop=1;jettySize=auto;html=1;exitX=0.5;exitY=1;exitDx=0;exitDy=0;exitPerimeter=0;entryX=0.5;entryY=0;entryDx=0;entryDy=0;entryPerimeter=0;endArrow=none;endFill=0;" edge="1" parent="aqwZJpFMOjea6-vcezyB-1" source="aqwZJpFMOjea6-vcezyB-3" target="aqwZJpFMOjea6-vcezyB-16">
          <mxGeometry relative="1" as="geometry" />
        </mxCell>
        <mxCell id="aqwZJpFMOjea6-vcezyB-3" value="начало А4" style="strokeWidth=2;html=1;shape=mxgraph.flowchart.terminator;whiteSpace=wrap;fontSize=10;" vertex="1" parent="aqwZJpFMOjea6-vcezyB-1">
          <mxGeometry x="167" y="70" width="100" height="50" as="geometry" />
        </mxCell>
        <mxCell id="aqwZJpFMOjea6-vcezyB-4" value="конец А4" style="strokeWidth=2;html=1;shape=mxgraph.flowchart.terminator;whiteSpace=wrap;fontSize=10;" vertex="1" parent="aqwZJpFMOjea6-vcezyB-1">
          <mxGeometry x="167" y="705" width="100" height="50" as="geometry" />
        </mxCell>
        <mxCell id="aqwZJpFMOjea6-vcezyB-5" style="edgeStyle=orthogonalEdgeStyle;rounded=0;orthogonalLoop=1;jettySize=auto;html=1;exitX=0.5;exitY=1;exitDx=0;exitDy=0;entryX=0.5;entryY=0;entryDx=0;entryDy=0;entryPerimeter=0;endArrow=none;endFill=0;" edge="1" parent="aqwZJpFMOjea6-vcezyB-1" source="aqwZJpFMOjea6-vcezyB-6" target="aqwZJpFMOjea6-vcezyB-9">
          <mxGeometry relative="1" as="geometry" />
        </mxCell>
        <mxCell id="aqwZJpFMOjea6-vcezyB-6" value="row = bottom;" style="rounded=0;whiteSpace=wrap;html=1;absoluteArcSize=1;arcSize=14;strokeWidth=2;" vertex="1" parent="aqwZJpFMOjea6-vcezyB-1">
          <mxGeometry x="309.5" y="205" width="75" height="50" as="geometry" />
        </mxCell>
        <mxCell id="aqwZJpFMOjea6-vcezyB-7" style="edgeStyle=orthogonalEdgeStyle;rounded=0;orthogonalLoop=1;jettySize=auto;html=1;exitX=1;exitY=0.5;exitDx=0;exitDy=0;exitPerimeter=0;entryX=0.5;entryY=0;entryDx=0;entryDy=0;endArrow=none;endFill=0;" edge="1" parent="aqwZJpFMOjea6-vcezyB-1" source="aqwZJpFMOjea6-vcezyB-9" target="aqwZJpFMOjea6-vcezyB-11">
          <mxGeometry relative="1" as="geometry" />
        </mxCell>
        <mxCell id="aqwZJpFMOjea6-vcezyB-8" style="edgeStyle=orthogonalEdgeStyle;rounded=0;orthogonalLoop=1;jettySize=auto;html=1;exitX=0.5;exitY=1;exitDx=0;exitDy=0;exitPerimeter=0;entryX=0.5;entryY=0;entryDx=0;entryDy=0;endArrow=none;endFill=0;" edge="1" parent="aqwZJpFMOjea6-vcezyB-1" source="aqwZJpFMOjea6-vcezyB-9" target="aqwZJpFMOjea6-vcezyB-18">
          <mxGeometry relative="1" as="geometry">
            <Array as="points">
              <mxPoint x="347" y="596" />
              <mxPoint x="217" y="596" />
            </Array>
          </mxGeometry>
        </mxCell>
        <mxCell id="aqwZJpFMOjea6-vcezyB-9" value="row &amp;gt;= top;" style="strokeWidth=2;html=1;shape=mxgraph.flowchart.decision;whiteSpace=wrap;fontSize=10;" vertex="1" parent="aqwZJpFMOjea6-vcezyB-1">
          <mxGeometry x="297" y="294" width="100" height="50" as="geometry" />
        </mxCell>
        <mxCell id="aqwZJpFMOjea6-vcezyB-10" style="edgeStyle=orthogonalEdgeStyle;rounded=0;orthogonalLoop=1;jettySize=auto;html=1;exitX=0.5;exitY=1;exitDx=0;exitDy=0;entryX=0.5;entryY=0;entryDx=0;entryDy=0;endArrow=none;endFill=0;" edge="1" parent="aqwZJpFMOjea6-vcezyB-1" source="aqwZJpFMOjea6-vcezyB-11" target="aqwZJpFMOjea6-vcezyB-13">
          <mxGeometry relative="1" as="geometry" />
        </mxCell>
        <mxCell id="aqwZJpFMOjea6-vcezyB-11" value="arr[row][left] = value++;" style="rounded=0;whiteSpace=wrap;html=1;absoluteArcSize=1;arcSize=14;strokeWidth=2;" vertex="1" parent="aqwZJpFMOjea6-vcezyB-1">
          <mxGeometry x="436" y="377" width="75" height="50" as="geometry" />
        </mxCell>
        <mxCell id="aqwZJpFMOjea6-vcezyB-12" style="edgeStyle=orthogonalEdgeStyle;rounded=0;orthogonalLoop=1;jettySize=auto;html=1;exitX=0.5;exitY=1;exitDx=0;exitDy=0;" edge="1" parent="aqwZJpFMOjea6-vcezyB-1" source="aqwZJpFMOjea6-vcezyB-13">
          <mxGeometry relative="1" as="geometry">
            <mxPoint x="473.5" y="567" as="sourcePoint" />
            <mxPoint x="347" y="273" as="targetPoint" />
            <Array as="points">
              <mxPoint x="474" y="543" />
              <mxPoint x="588" y="543" />
              <mxPoint x="588" y="273" />
              <mxPoint x="347" y="273" />
            </Array>
          </mxGeometry>
        </mxCell>
        <mxCell id="aqwZJpFMOjea6-vcezyB-13" value="row--;" style="rounded=0;whiteSpace=wrap;html=1;absoluteArcSize=1;arcSize=14;strokeWidth=2;" vertex="1" parent="aqwZJpFMOjea6-vcezyB-1">
          <mxGeometry x="436" y="469" width="75" height="50" as="geometry" />
        </mxCell>
        <mxCell id="aqwZJpFMOjea6-vcezyB-14" style="edgeStyle=orthogonalEdgeStyle;rounded=0;orthogonalLoop=1;jettySize=auto;html=1;exitX=1;exitY=0.5;exitDx=0;exitDy=0;exitPerimeter=0;entryX=0.5;entryY=0;entryDx=0;entryDy=0;endArrow=none;endFill=0;" edge="1" parent="aqwZJpFMOjea6-vcezyB-1" source="aqwZJpFMOjea6-vcezyB-16" target="aqwZJpFMOjea6-vcezyB-6">
          <mxGeometry relative="1" as="geometry" />
        </mxCell>
        <mxCell id="aqwZJpFMOjea6-vcezyB-15" style="edgeStyle=orthogonalEdgeStyle;rounded=0;orthogonalLoop=1;jettySize=auto;html=1;exitX=0.5;exitY=1;exitDx=0;exitDy=0;exitPerimeter=0;entryX=0.5;entryY=0;entryDx=0;entryDy=0;endArrow=none;endFill=0;" edge="1" parent="aqwZJpFMOjea6-vcezyB-1" source="aqwZJpFMOjea6-vcezyB-16" target="aqwZJpFMOjea6-vcezyB-18">
          <mxGeometry relative="1" as="geometry" />
        </mxCell>
        <mxCell id="aqwZJpFMOjea6-vcezyB-16" value="left &amp;lt;= right?" style="strokeWidth=2;html=1;shape=mxgraph.flowchart.decision;whiteSpace=wrap;fontSize=10;" vertex="1" parent="aqwZJpFMOjea6-vcezyB-1">
          <mxGeometry x="167" y="144" width="100" height="50" as="geometry" />
        </mxCell>
        <mxCell id="aqwZJpFMOjea6-vcezyB-17" style="edgeStyle=orthogonalEdgeStyle;rounded=0;orthogonalLoop=1;jettySize=auto;html=1;exitX=0.5;exitY=1;exitDx=0;exitDy=0;entryX=0.5;entryY=0;entryDx=0;entryDy=0;entryPerimeter=0;endArrow=none;endFill=0;" edge="1" parent="aqwZJpFMOjea6-vcezyB-1" source="aqwZJpFMOjea6-vcezyB-18" target="aqwZJpFMOjea6-vcezyB-4">
          <mxGeometry relative="1" as="geometry" />
        </mxCell>
        <mxCell id="aqwZJpFMOjea6-vcezyB-18" value="left++;" style="rounded=0;whiteSpace=wrap;html=1;absoluteArcSize=1;arcSize=14;strokeWidth=2;" vertex="1" parent="aqwZJpFMOjea6-vcezyB-1">
          <mxGeometry x="180" y="630" width="75" height="50" as="geometry" />
        </mxCell>
        <mxCell id="aqwZJpFMOjea6-vcezyB-19" value="да" style="text;html=1;strokeColor=none;fillColor=none;align=center;verticalAlign=middle;whiteSpace=wrap;rounded=0;" vertex="1" parent="aqwZJpFMOjea6-vcezyB-1">
          <mxGeometry x="271" y="144" width="60" height="30" as="geometry" />
        </mxCell>
        <mxCell id="aqwZJpFMOjea6-vcezyB-20" value="да" style="text;html=1;strokeColor=none;fillColor=none;align=center;verticalAlign=middle;whiteSpace=wrap;rounded=0;" vertex="1" parent="aqwZJpFMOjea6-vcezyB-1">
          <mxGeometry x="399" y="295" width="60" height="30" as="geometry" />
        </mxCell>
      </root>
    </mxGraphModel>
  </diagram>
  <diagram id="MLQ0YLqLUSWA3mCPrVQh" name="A5">
    <mxGraphModel dx="1750" dy="1115" grid="0" gridSize="10" guides="1" tooltips="1" connect="1" arrows="1" fold="1" page="1" pageScale="1" pageWidth="827" pageHeight="1169" math="0" shadow="0">
      <root>
        <mxCell id="0" />
        <mxCell id="1" parent="0" />
        <mxCell id="7Q5HWhj0BVn16lGW7NjK-10" style="edgeStyle=orthogonalEdgeStyle;rounded=0;orthogonalLoop=1;jettySize=auto;html=1;exitX=0.5;exitY=1;exitDx=0;exitDy=0;exitPerimeter=0;entryX=0.5;entryY=0;entryDx=0;entryDy=0;endArrow=none;endFill=0;" edge="1" parent="1" source="7Q5HWhj0BVn16lGW7NjK-1" target="7Q5HWhj0BVn16lGW7NjK-3">
          <mxGeometry relative="1" as="geometry" />
        </mxCell>
        <mxCell id="7Q5HWhj0BVn16lGW7NjK-1" value="начало А5" style="strokeWidth=2;html=1;shape=mxgraph.flowchart.terminator;whiteSpace=wrap;fontSize=10;" vertex="1" parent="1">
          <mxGeometry x="174" y="74" width="100" height="50" as="geometry" />
        </mxCell>
        <mxCell id="7Q5HWhj0BVn16lGW7NjK-2" value="конец А5" style="strokeWidth=2;html=1;shape=mxgraph.flowchart.terminator;whiteSpace=wrap;fontSize=10;" vertex="1" parent="1">
          <mxGeometry x="174" y="767" width="100" height="50" as="geometry" />
        </mxCell>
        <mxCell id="7Q5HWhj0BVn16lGW7NjK-11" style="edgeStyle=orthogonalEdgeStyle;rounded=0;orthogonalLoop=1;jettySize=auto;html=1;exitX=0.5;exitY=1;exitDx=0;exitDy=0;entryX=0.5;entryY=0;entryDx=0;entryDy=0;entryPerimeter=0;endArrow=none;endFill=0;" edge="1" parent="1" source="7Q5HWhj0BVn16lGW7NjK-3" target="7Q5HWhj0BVn16lGW7NjK-4">
          <mxGeometry relative="1" as="geometry" />
        </mxCell>
        <mxCell id="7Q5HWhj0BVn16lGW7NjK-3" value="i = 0;" style="rounded=0;whiteSpace=wrap;html=1;absoluteArcSize=1;arcSize=14;strokeWidth=2;" vertex="1" parent="1">
          <mxGeometry x="187" y="154" width="75" height="50" as="geometry" />
        </mxCell>
        <mxCell id="7Q5HWhj0BVn16lGW7NjK-12" style="edgeStyle=orthogonalEdgeStyle;rounded=0;orthogonalLoop=1;jettySize=auto;html=1;exitX=1;exitY=0.5;exitDx=0;exitDy=0;exitPerimeter=0;entryX=0.5;entryY=0;entryDx=0;entryDy=0;endArrow=none;endFill=0;" edge="1" parent="1" source="7Q5HWhj0BVn16lGW7NjK-4" target="7Q5HWhj0BVn16lGW7NjK-7">
          <mxGeometry relative="1" as="geometry" />
        </mxCell>
        <mxCell id="7Q5HWhj0BVn16lGW7NjK-19" style="edgeStyle=orthogonalEdgeStyle;rounded=0;orthogonalLoop=1;jettySize=auto;html=1;exitX=0.5;exitY=1;exitDx=0;exitDy=0;exitPerimeter=0;entryX=0.5;entryY=0;entryDx=0;entryDy=0;entryPerimeter=0;endArrow=none;endFill=0;" edge="1" parent="1" source="7Q5HWhj0BVn16lGW7NjK-4" target="7Q5HWhj0BVn16lGW7NjK-2">
          <mxGeometry relative="1" as="geometry" />
        </mxCell>
        <mxCell id="7Q5HWhj0BVn16lGW7NjK-4" value="i &amp;lt; n?" style="strokeWidth=2;html=1;shape=mxgraph.flowchart.decision;whiteSpace=wrap;fontSize=10;" vertex="1" parent="1">
          <mxGeometry x="175" y="240" width="100" height="50" as="geometry" />
        </mxCell>
        <mxCell id="7Q5HWhj0BVn16lGW7NjK-25" style="edgeStyle=orthogonalEdgeStyle;rounded=0;orthogonalLoop=1;jettySize=auto;html=1;exitX=0.5;exitY=1;exitDx=0;exitDy=0;" edge="1" parent="1" source="7Q5HWhj0BVn16lGW7NjK-5">
          <mxGeometry relative="1" as="geometry">
            <mxPoint x="226" y="221" as="targetPoint" />
            <Array as="points">
              <mxPoint x="346" y="731" />
              <mxPoint x="701" y="731" />
              <mxPoint x="701" y="221" />
              <mxPoint x="262" y="221" />
            </Array>
          </mxGeometry>
        </mxCell>
        <mxCell id="7Q5HWhj0BVn16lGW7NjK-5" value="i++" style="rounded=0;whiteSpace=wrap;html=1;absoluteArcSize=1;arcSize=14;strokeWidth=2;" vertex="1" parent="1">
          <mxGeometry x="308" y="661" width="75" height="50" as="geometry" />
        </mxCell>
        <mxCell id="7Q5HWhj0BVn16lGW7NjK-14" style="edgeStyle=orthogonalEdgeStyle;rounded=0;orthogonalLoop=1;jettySize=auto;html=1;exitX=1;exitY=0.5;exitDx=0;exitDy=0;exitPerimeter=0;entryX=0.5;entryY=0;entryDx=0;entryDy=0;endArrow=none;endFill=0;" edge="1" parent="1" source="7Q5HWhj0BVn16lGW7NjK-6" target="7Q5HWhj0BVn16lGW7NjK-9">
          <mxGeometry relative="1" as="geometry" />
        </mxCell>
        <mxCell id="7Q5HWhj0BVn16lGW7NjK-16" style="edgeStyle=orthogonalEdgeStyle;rounded=0;orthogonalLoop=1;jettySize=auto;html=1;exitX=0.5;exitY=1;exitDx=0;exitDy=0;exitPerimeter=0;entryX=0.5;entryY=0;entryDx=0;entryDy=0;endArrow=none;endFill=0;" edge="1" parent="1" source="7Q5HWhj0BVn16lGW7NjK-6" target="7Q5HWhj0BVn16lGW7NjK-5">
          <mxGeometry relative="1" as="geometry" />
        </mxCell>
        <mxCell id="7Q5HWhj0BVn16lGW7NjK-6" value="j &amp;lt; n?" style="strokeWidth=2;html=1;shape=mxgraph.flowchart.decision;whiteSpace=wrap;fontSize=10;" vertex="1" parent="1">
          <mxGeometry x="296" y="404" width="100" height="50" as="geometry" />
        </mxCell>
        <mxCell id="7Q5HWhj0BVn16lGW7NjK-13" style="edgeStyle=orthogonalEdgeStyle;rounded=0;orthogonalLoop=1;jettySize=auto;html=1;exitX=0.5;exitY=1;exitDx=0;exitDy=0;entryX=0.5;entryY=0;entryDx=0;entryDy=0;entryPerimeter=0;endArrow=none;endFill=0;" edge="1" parent="1" source="7Q5HWhj0BVn16lGW7NjK-7" target="7Q5HWhj0BVn16lGW7NjK-6">
          <mxGeometry relative="1" as="geometry" />
        </mxCell>
        <mxCell id="7Q5HWhj0BVn16lGW7NjK-7" value="j = 0;" style="rounded=0;whiteSpace=wrap;html=1;absoluteArcSize=1;arcSize=14;strokeWidth=2;" vertex="1" parent="1">
          <mxGeometry x="309" y="317" width="75" height="50" as="geometry" />
        </mxCell>
        <mxCell id="7Q5HWhj0BVn16lGW7NjK-24" style="edgeStyle=orthogonalEdgeStyle;rounded=0;orthogonalLoop=1;jettySize=auto;html=1;exitX=0.5;exitY=1;exitDx=0;exitDy=0;" edge="1" parent="1" source="7Q5HWhj0BVn16lGW7NjK-8">
          <mxGeometry relative="1" as="geometry">
            <mxPoint x="347" y="383" as="targetPoint" />
            <Array as="points">
              <mxPoint x="474" y="619" />
              <mxPoint x="638" y="619" />
              <mxPoint x="638" y="383" />
            </Array>
          </mxGeometry>
        </mxCell>
        <mxCell id="7Q5HWhj0BVn16lGW7NjK-8" value="j++;" style="rounded=0;whiteSpace=wrap;html=1;absoluteArcSize=1;arcSize=14;strokeWidth=2;" vertex="1" parent="1">
          <mxGeometry x="437" y="549" width="75" height="50" as="geometry" />
        </mxCell>
        <mxCell id="7Q5HWhj0BVn16lGW7NjK-15" style="edgeStyle=orthogonalEdgeStyle;rounded=0;orthogonalLoop=1;jettySize=auto;html=1;exitX=0.5;exitY=1;exitDx=0;exitDy=0;entryX=0.5;entryY=0;entryDx=0;entryDy=0;endArrow=none;endFill=0;" edge="1" parent="1" source="7Q5HWhj0BVn16lGW7NjK-9" target="7Q5HWhj0BVn16lGW7NjK-8">
          <mxGeometry relative="1" as="geometry" />
        </mxCell>
        <mxCell id="7Q5HWhj0BVn16lGW7NjK-9" value="arr[i][j]" style="shape=parallelogram;html=1;strokeWidth=2;perimeter=parallelogramPerimeter;whiteSpace=wrap;rounded=0;arcSize=12;size=0.23;fontSize=10;" vertex="1" parent="1">
          <mxGeometry x="425" y="468" width="100" height="50" as="geometry" />
        </mxCell>
        <mxCell id="7Q5HWhj0BVn16lGW7NjK-21" value="да" style="text;html=1;strokeColor=none;fillColor=none;align=center;verticalAlign=middle;whiteSpace=wrap;rounded=0;" vertex="1" parent="1">
          <mxGeometry x="275" y="240" width="60" height="30" as="geometry" />
        </mxCell>
        <mxCell id="7Q5HWhj0BVn16lGW7NjK-22" value="да" style="text;html=1;strokeColor=none;fillColor=none;align=center;verticalAlign=middle;whiteSpace=wrap;rounded=0;" vertex="1" parent="1">
          <mxGeometry x="400" y="407" width="60" height="30" as="geometry" />
        </mxCell>
      </root>
    </mxGraphModel>
  </diagram>
</mxfile>
